<?xml version="1.0" encoding="UTF-8"?>
<svg id="Camada_2" data-name="Camada 2" xmlns="http://www.w3.org/2000/svg" viewBox="0 0 26.09 32.61">
  <defs>
    <style>
      .cls-1 {
        fill: #eb6608;
      }
    </style>
  </defs>
  <g id="Camada_1-2" data-name="Camada 1">
    <g>
      <polygon class="cls-1" points="19.57 0 13.04 0 6.52 0 0 0 0 6.52 6.52 6.52 13.04 6.52 19.57 6.52 19.57 13.04 26.09 13.04 26.09 6.52 26.09 0 19.57 0"/>
      <polygon class="cls-1" points="6.52 13.04 6.52 19.57 13.04 19.57 19.57 19.57 19.57 13.04 13.04 13.04 6.52 13.04"/>
      <polygon class="cls-1" points="0 26.09 0 32.61 6.52 32.61 13.04 32.61 19.57 32.61 26.09 32.61 26.09 26.09 19.57 26.09 13.04 26.09 6.52 26.09 6.52 19.57 0 19.57 0 26.09"/>
    </g>
  </g>
</svg>