<?xml version="1.0" encoding="UTF-8"?>
<svg id="Camada_2" data-name="Camada 2" xmlns="http://www.w3.org/2000/svg" viewBox="0 0 150 39.46">
  <defs>
    <style>
      .cls-1 {
        fill: #eb6608;
      }
    </style>
  </defs>
  <g id="Camada_1-2" data-name="Camada 1">
    <g>
      <g>
        <polygon class="cls-1" points="6.52 6.52 0 6.52 0 13.04 0 19.57 0 26.09 0 32.61 0 39.13 6.52 39.13 6.52 32.61 6.52 26.09 6.52 19.57 13.04 19.57 13.04 13.04 6.52 13.04 6.52 6.52"/>
        <polygon class="cls-1" points="19.57 6.52 13.04 6.52 13.04 13.04 19.57 13.04 26.09 13.04 26.09 6.52 19.57 6.52"/>
      </g>
      <g>
        <polygon class="cls-1" points="45.65 32.61 45.65 26.09 45.65 19.57 45.65 13.04 39.13 13.04 32.61 13.04 32.61 19.57 39.13 19.57 39.13 26.09 39.13 32.61 32.61 32.61 32.61 39.13 39.13 39.13 45.65 39.13 52.17 39.13 52.17 32.61 45.65 32.61"/>
        <rect class="cls-1" x="39.13" width="6.52" height="6.52"/>
      </g>
      <g>
        <polygon class="cls-1" points="143.48 13.04 143.48 19.57 143.48 26.09 143.48 32.61 150 32.61 150 26.09 150 19.57 150 13.04 143.48 13.04"/>
        <polygon class="cls-1" points="130.43 19.57 130.43 13.04 123.91 13.04 123.91 19.57 123.91 26.09 123.91 32.61 130.43 32.61 130.43 26.09 130.43 19.57"/>
        <polygon class="cls-1" points="130.43 32.61 130.43 39.13 136.96 39.13 143.48 39.13 143.48 32.61 136.96 32.61 130.43 32.61"/>
        <polygon class="cls-1" points="143.48 13.04 143.48 6.52 136.96 6.52 130.43 6.52 130.43 13.04 136.96 13.04 143.48 13.04"/>
      </g>
      <g>
        <polygon class="cls-1" points="78.26 6.52 71.74 6.52 65.22 6.52 58.7 6.52 58.7 13.04 65.22 13.04 71.74 13.04 78.26 13.04 78.26 19.57 84.78 19.57 84.78 13.04 84.78 6.52 78.26 6.52"/>
        <polygon class="cls-1" points="65.22 19.57 65.22 26.09 71.74 26.09 78.26 26.09 78.26 19.57 71.74 19.57 65.22 19.57"/>
        <polygon class="cls-1" points="58.7 32.61 58.7 39.13 65.22 39.13 71.74 39.13 78.26 39.13 84.78 39.13 84.78 32.61 78.26 32.61 71.74 32.61 65.22 32.61 65.22 26.09 58.7 26.09 58.7 32.61"/>
      </g>
      <g>
        <polygon class="cls-1" points="110.87 6.85 104.35 6.85 97.83 6.85 91.3 6.85 91.3 13.37 97.83 13.37 104.35 13.37 110.87 13.37 110.87 19.89 117.39 19.89 117.39 13.37 117.39 6.85 110.87 6.85"/>
        <polygon class="cls-1" points="97.83 19.89 97.83 26.41 104.35 26.41 110.87 26.41 110.87 19.89 104.35 19.89 97.83 19.89"/>
        <polygon class="cls-1" points="91.3 32.93 91.3 39.46 97.83 39.46 104.35 39.46 110.87 39.46 117.39 39.46 117.39 32.93 110.87 32.93 104.35 32.93 97.83 32.93 97.83 26.41 91.3 26.41 91.3 32.93"/>
      </g>
      <rect class="cls-1" x="19.57" y="13.04" width="6.52" height="6.52"/>
    </g>
  </g>
</svg>